{"title":"About Time 2013 English Movies HD Blu-Ray DVDRip x264 New Source","uid":9423506,"size":781766994,"categoryP":"video","categoryS":"movies","magnet":"?xt=urn:btih:09e2395f8c3d27d67dc8d9cfdb196d827a0f8292&amp;dn=About+Time+2013+English+Movies+HD+Blu-Ray+DVDRip+x264+New+Source&amp;tr=udp%3A%2F%2Ftracker.openbittorrent.com%3A80&amp;tr=udp%3A%2F%2Fopen.demonii.com%3A1337&amp;tr=udp%3A%2F%2Ftracker.coppersurfer.tk%3A6969&amp;tr=udp%3A%2F%2Fexodus.desync.com%3A6969","seeders":7,"leechers":3,"uploader":"basicssom","files":2,"time":1388635546,"description":" &lt;a href=&quot;http://s5.postimg.org/hgeuxszk7/logo.png&quot; rel=&quot;nofollow&quot; target=&quot;_NEW&quot;&gt;http://s5.postimg.org/hgeuxszk7/logo.png&lt;/a&gt;\n\nAbout Time 2013 English Movies HD Blu-Ray DVDRip x264 New Source with Sample â˜»rDXâ˜»\n\nPlease check SCREEN SHOTS first :\n &lt;a href=&quot;\nhttp://moviesreview.co.nr/2014/1/AboutTime/1.html&quot; rel=&quot;nofollow&quot; target=&quot;_NEW&quot;&gt;\nhttp://moviesreview.co.nr/2014/1/AboutTime/1.html&lt;/a&gt;\n &lt;a href=&quot;\nhttp://moviesreview.co.nr/2014/1/AboutTime/2.html&quot; rel=&quot;nofollow&quot; target=&quot;_NEW&quot;&gt;\nhttp://moviesreview.co.nr/2014/1/AboutTime/2.html&lt;/a&gt;\n &lt;a href=&quot;\nhttp://moviesreview.co.nr/2014/1/AboutTime/3.html&quot; rel=&quot;nofollow&quot; target=&quot;_NEW&quot;&gt;\nhttp://moviesreview.co.nr/2014/1/AboutTime/3.html&lt;/a&gt;\n &lt;a href=&quot;\nhttp://moviesreview.co.nr/2014/1/AboutTime/4.html&quot; rel=&quot;nofollow&quot; target=&quot;_NEW&quot;&gt;\nhttp://moviesreview.co.nr/2014/1/AboutTime/4.html&lt;/a&gt;\n &lt;a href=&quot;\nhttp://moviesreview.co.nr/2014/1/AboutTime/5.html&quot; rel=&quot;nofollow&quot; target=&quot;_NEW&quot;&gt;\nhttp://moviesreview.co.nr/2014/1/AboutTime/5.html&lt;/a&gt;\n &lt;a href=&quot;\nhttp://moviesreview.co.nr/2014/1/AboutTime/6.html&quot; rel=&quot;nofollow&quot; target=&quot;_NEW&quot;&gt;\nhttp://moviesreview.co.nr/2014/1/AboutTime/6.html&lt;/a&gt;\n\nAll rDX torrents are Seeding From the 1Gbps Seedbox 24X7\n &lt;a href=&quot;\nhttp://istoreimg.com/upload/big/2014/01/02/52c4d57a6ff69.jpg&quot; rel=&quot;nofollow&quot; target=&quot;_NEW&quot;&gt;\nhttp://istoreimg.com/upload/big/2014/01/02/52c4d57a6ff69.jpg&lt;/a&gt;\n &lt;a href=&quot;\nhttp://istoreimg.com/upload/big/2014/01/02/52c4d57bda0af.jpg&quot; rel=&quot;nofollow&quot; target=&quot;_NEW&quot;&gt;\nhttp://istoreimg.com/upload/big/2014/01/02/52c4d57bda0af.jpg&lt;/a&gt;\n\nFormat                                   : Matroska\nFormat version                           : Version 4 / Version 2\nFile size                                : 738 MiB\nDuration                                 : 1h 57mn\nOverall bit rate                         : 881 Kbps\n\nVideo\nID                                       : 1\nFormat                                   : AVC\nFormat/Info                              : Advanced Video Codec\nFormat profile                           : &lt;a class=&quot;__cf_email__&quot; href=&quot;/cdn-cgi/l/email-protection&quot; data-cfemail=&quot;d69ebfb1be969ae2f8e7&quot;&gt;[email&amp;#160;protected]&lt;/a&gt;&lt;script cf-hash='f9e31' type=&quot;text/javascript&quot;&gt;\n/* &lt;![CDATA[ */!function(){try{var t=&quot;currentScript&quot;in document?document.currentScript:function(){for(var t=document.getElementsByTagName(&quot;script&quot;),e=t.length;e--;)if(t[e].getAttribute(&quot;cf-hash&quot;))return t[e]}();if(t&amp;&amp;t.previousSibling){var e,r,n,i,c=t.previousSibling,a=c.getAttribute(&quot;data-cfemail&quot;);if(a){for(e=&quot;&quot;,r=parseInt(a.substr(0,2),16),n=2;a.length-n;n+=2)i=parseInt(a.substr(n,2),16)^r,e+=String.fromCharCode(i);e=document.createTextNode(e),c.parentNode.replaceChild(e,c)}}}catch(u){}}();/* ]]&gt; */&lt;/script&gt;\nFormat settings, CABAC                   : Yes\nFormat settings, ReFrames                : 5 frames\nCodec ID                                 : V_MPEG4/ISO/AVC\nDuration                                 : 1h 57mn\nBit rate                                 : 671 Kbps\nWidth                                    : 720 pixels\nHeight                                   : 300 pixels\nDisplay aspect ratio                     : 2.40:1\nFrame rate mode                          : Constant\nFrame rate                               : 23.976 fps\nColor space                              : YUV\nChroma subsampling                       : 4:2:0\nBit depth                                : 8 bits\nScan type                                : Progressive\nBits/(Pixel*Frame)                       : 0.130\nStream size                              : 562 MiB (76%)\nWriting library                          : x264\nLanguage                                 : English\nDefault                                  : Yes\nForced                                   : No\n\nAudio\nID                                       : 2\nFormat                                   : AC-3\nFormat/Info                              : Audio Coding 3\nMode extension                           : CM (complete main)\nFormat settings, Endianness              : Big\nCodec ID                                 : A_AC3\nDuration                                 : 1h 57mn\nBit rate mode                            : Constant\nBit rate                                 : 192 Kbps\nChannel(s)                               : 2 channels\nChannel positions                        : Front: L R\nSampling rate                            : 48.0 KHz\nBit depth                                : 16 bits\nCompression mode                         : Lossy\nStream size                              : 161 MiB (22%)\nLanguage                                 : English\nDefault                                  : Yes\nForced                                   : No","torrent":{"xt":"urn:btih:09e2395f8c3d27d67dc8d9cfdb196d827a0f8292","amp;dn":"About+Time+2013+English+Movies+HD+Blu-Ray+DVDRip+x264+New+Source","amp;tr":["udp%3A%2F%2Ftracker.openbittorrent.com%3A80","udp%3A%2F%2Fopen.demonii.com%3A1337","udp%3A%2F%2Ftracker.coppersurfer.tk%3A6969","udp%3A%2F%2Fexodus.desync.com%3A6969"],"infoHash":"09e2395f8c3d27d67dc8d9cfdb196d827a0f8292","infoHashBuffer":{"type":"Buffer","data":[9,226,57,95,140,61,39,214,125,200,217,207,219,25,109,130,122,15,130,146]},"announce":[],"urlList":[]}}